<svg width="24" height="24" viewBox="0 0 24 24" fill="none" xmlns="http://www.w3.org/2000/svg">
<path d="M21.5933 7.20301C21.3633 6.34501 20.6883 5.66801 19.8313 5.43701C18.2653 5.00701 12.0003 5.00001 12.0003 5.00001C12.0003 5.00001 5.73633 4.99301 4.16933 5.40401C3.32933 5.63301 2.63533 6.32501 2.40333 7.18201C1.99033 8.74801 1.98633 11.996 1.98633 11.996C1.98633 11.996 1.98233 15.26 2.39233 16.81C2.62233 17.667 3.29733 18.344 4.15533 18.575C5.73733 19.005 11.9853 19.012 11.9853 19.012C11.9853 19.012 18.2503 19.019 19.8163 18.609C20.6723 18.379 21.3503 17.703 21.5833 16.846C21.9973 15.281 22.0003 12.034 22.0003 12.034C22.0003 12.034 22.0203 8.76901 21.5933 7.20301ZM9.99633 15.005L10.0013 9.00501L15.2083 12.01L9.99633 15.005Z" fill="white"/>
</svg>
