<svg width="26" height="20" viewBox="0 0 26 20" fill="none" xmlns="http://www.w3.org/2000/svg">
<path d="M25 0H1C0.734784 0 0.48043 0.105357 0.292893 0.292893C0.105357 0.48043 0 0.734784 0 1V18C0 18.5304 0.210714 19.0391 0.585786 19.4142C0.960859 19.7893 1.46957 20 2 20H24C24.5304 20 25.0391 19.7893 25.4142 19.4142C25.7893 19.0391 26 18.5304 26 18V1C26 0.734784 25.8946 0.48043 25.7071 0.292893C25.5196 0.105357 25.2652 0 25 0ZM23.9648 18H2V3.275L12.325 12.7375C12.5093 12.9061 12.7501 12.9997 13 12.9997C13.2499 12.9997 13.4907 12.9061 13.675 12.7375L24 3.275L23.9648 18Z" fill="#20976C"/>
<path d="M1 0H25C25.2652 0 25.5196 0.105357 25.7071 0.292893C25.8946 0.48043 26 0.734784 26 1L24 3.275L13.675 12.7375C13.4907 12.9061 13.2499 12.9997 13 12.9997C12.7501 12.9997 12.5093 12.9061 12.325 12.7375L2 3.275L0 1C0 0.734784 0.105357 0.48043 0.292893 0.292893C0.48043 0.105357 0.734784 0 1 0Z" fill="#0A61B4"/>
</svg>
