<svg width="173" height="34" viewBox="0 0 173 34" fill="none" xmlns="http://www.w3.org/2000/svg">
<path d="M28.294 28.5552C34.7676 22.0817 34.842 11.5021 28.3684 5.02867C22.1837 -1.45879 11.2977 -1.89051 4.54036 5.02963C3.96859 5.61566 2.87265 7.00943 2.34846 7.79891C0.726593 10.2436 0 13.3749 0 13.9812C0.135804 18.1875 5.13375 17.8257 5.7306 15.1087C6.08178 12.8661 7.12151 10.7103 8.8489 8.98231C13.1851 4.64609 20.2158 4.64609 24.552 8.98231C28.8883 13.3186 28.8883 20.349 24.552 24.6853C23.8038 25.4336 22.3515 26.6748 20.1146 27.3912C16.5898 27.9075 16.5724 24.7276 16.5724 24.7276C16.5724 24.7276 16.4574 22.7265 18.3898 22.0829C19.1917 21.8159 19.9451 21.361 20.586 20.7195C21.6526 19.6532 22.1889 18.2578 22.1958 16.8603C22.2027 15.4451 21.6664 14.0278 20.586 12.9481C18.44 10.802 14.961 10.802 12.8149 12.9481C11.7518 14.0115 11.2147 15.4024 11.2051 16.7962C11.1956 18.215 11.1835 29.6534 11.2155 31.9561C11.2155 31.9561 11.2155 32.3183 11.2155 32.5307C12.1913 32.8665 13.5692 33.4028 16.5309 33.4102C20.7867 33.4209 25.0468 31.8025 28.294 28.5552Z" fill="white"/>
<path fill-rule="evenodd" clip-rule="evenodd" d="M41.6604 16.7899C41.6604 16.7899 41.6007 24.386 41.6708 27.2097C41.7417 30.0334 45.7735 30.0896 45.8851 27.2097V24.4316V16.8348V16.7899C45.8851 15.4606 46.4231 14.2618 47.2959 13.3933C48.1643 12.5247 49.3675 11.9864 50.6927 11.9864C52.0222 11.9864 53.2202 12.5247 54.093 13.3933C54.9615 14.2618 55.5004 15.4647 55.5004 16.7899C55.5004 18.1193 54.9615 19.3222 54.093 20.1907C53.2816 21.0022 52.177 21.5242 50.9531 21.5894C50.3675 21.6204 49.8165 21.6012 49.3277 21.6746C46.6445 21.8011 46.4759 25.7486 49.3277 25.8962C49.4549 25.8969 49.5907 25.8902 49.7351 25.8751C52.2307 25.8751 55.4467 24.8109 57.0781 23.1757C58.7129 21.5445 59.725 19.2855 59.725 16.7899C59.725 14.2985 58.7129 12.0395 57.0781 10.4043C55.4467 8.76908 53.1882 7.75781 50.6927 7.75781C48.2007 7.75781 45.9421 8.76908 44.3064 10.4043C42.6716 12.0395 41.6604 14.2985 41.6604 16.7899Z" fill="white"/>
<path d="M76.9881 25.9313C78.1601 25.9313 79.1056 24.9534 79.1056 23.7742V16.7899C79.1056 14.2985 78.0944 12.0395 76.463 10.4043C74.8282 8.76908 72.5688 7.75781 70.0733 7.75781C67.5821 7.75781 65.3228 8.76908 63.6879 10.4043C62.0565 12.0395 61.041 14.2985 61.041 16.7899C61.041 19.2855 62.0565 21.5445 63.6879 23.1757C65.7025 25.1906 68.6123 26.0296 71.4184 25.9313C72.5904 25.9313 73.5402 24.9815 73.5402 23.81C73.5402 22.6384 72.5904 21.6887 71.4184 21.6887C70.8665 21.6887 70.3112 21.622 69.755 21.5854C68.557 21.5079 67.4757 20.99 66.6765 20.1907C65.808 19.3222 65.27 18.1193 65.27 16.7899C65.27 15.4647 65.808 14.2618 66.6765 13.3933C67.5449 12.5247 68.7481 11.9864 70.0733 11.9864C71.4028 11.9864 72.606 12.5247 73.4745 13.3933C74.3429 14.2618 74.8809 15.4606 74.8809 16.7899V23.7742C74.8809 24.9534 75.8169 25.9313 76.9881 25.9313Z" fill="white"/>
<path d="M80.8729 8.41025C81.6973 7.58851 83.0337 7.58851 83.858 8.41025L83.9488 8.50108C84.454 9.00658 86.8518 11.4043 89.3516 13.9018C92.0625 11.188 94.6203 8.63048 94.8305 8.41968C95.6531 7.59482 96.9861 7.59482 97.8078 8.41968C98.6304 9.2442 98.6304 10.5808 97.8078 11.4054C97.5993 11.6144 95.0364 14.1758 92.3359 16.8782C94.9568 19.496 97.448 21.9875 97.7922 22.3315L97.8191 22.3582C98.6434 23.1803 98.6434 24.5135 97.8191 25.3356C96.9938 26.1574 95.6574 26.1574 94.8331 25.3356C94.6238 25.1266 92.0608 22.5655 89.3585 19.8653C86.6485 22.5777 84.0639 25.1623 83.8606 25.3661C83.038 26.1909 81.7051 26.1908 80.8825 25.3659C80.0607 24.5413 80.0607 23.2049 80.8825 22.3804C81.0494 22.2138 83.6487 19.6119 86.3726 16.8849C83.6522 14.1668 81.0771 11.5919 80.8721 11.3877C80.0477 10.5656 80.0477 9.23235 80.8729 8.41025Z" fill="white"/>
<path d="M101.605 17.2935H99.7733C98.6021 17.2935 97.6523 16.3438 97.6523 15.1722C97.6523 14.0007 98.6021 13.0509 99.7733 13.0509C100.175 13.0137 101.123 13.0509 101.614 13.0509C101.614 10.5595 102.69 8.34992 104.325 6.71481C105.956 5.07963 108.216 4.06836 110.711 4.06836C112.53 4.06836 114.95 4.22354 114.95 6.42911C114.95 7.60066 114 8.55042 112.828 8.55042C112.502 8.55042 111.882 8.30918 110.331 8.30918C109.158 8.40294 108.097 8.91675 107.31 9.70372C106.442 10.5723 105.847 11.7256 105.847 13.0509H109.115C110.286 13.0509 111.236 14.0007 111.236 15.1722C111.236 16.3438 110.286 17.2935 109.115 17.2935H105.847V23.8624C105.847 25.034 104.898 25.9836 103.725 25.9836C102.554 25.9836 101.605 25.034 101.605 23.8624V17.2935Z" fill="white"/>
<path d="M133.098 17.1135C133.098 14.5486 134.142 12.2203 135.83 10.5321C137.506 8.84798 139.834 7.80817 142.411 7.80817C144.082 7.73439 145.263 8.40848 145.32 10.0202C145.32 11.2109 144.355 12.1761 143.164 12.1761C142.762 12.1836 142.223 12.1347 141.816 12.1836C140.686 12.3222 139.675 12.8401 138.904 13.6067H138.897C138.007 14.4997 137.453 15.7393 137.453 17.1135V23.825C137.453 25.0157 136.488 25.9809 135.296 25.9809C134.106 25.9809 133.104 25.0157 133.104 23.825L133.098 17.1135Z" fill="white"/>
<path d="M154.12 7.80273C149.861 7.80273 146.408 11.2557 146.408 15.5152C146.408 15.5152 146.408 23.016 146.408 23.8544C146.408 25.0289 147.338 25.9868 148.512 25.9868C149.687 25.9868 150.639 25.0346 150.639 23.86L150.637 15.5249C150.637 13.6062 152.208 12.0411 154.12 12.0411C156.033 12.0411 157.584 13.5965 157.584 15.5152C157.584 15.5152 157.588 23.016 157.588 23.8544C157.588 25.0289 158.518 25.9868 159.693 25.9868C160.867 25.9868 161.819 25.0346 161.819 23.86V15.5249C161.819 13.6062 163.387 12.0411 165.301 12.0411C167.213 12.0411 168.764 13.5965 168.764 15.5152C168.764 15.5152 168.768 23.016 168.768 23.8544C168.768 25.0289 169.698 25.9868 170.872 25.9868C172.047 25.9868 172.999 25.0346 172.999 23.86V15.5249C172.999 11.2653 169.56 7.80273 165.301 7.80273C163.091 7.80273 161.101 8.72802 159.695 10.2169C158.294 8.74333 156.315 7.80273 154.12 7.80273Z" fill="white"/>
<path fill-rule="evenodd" clip-rule="evenodd" d="M115.939 10.4491C114.304 12.0843 113.293 14.3433 113.293 16.8348C113.293 19.3304 114.304 21.5895 115.939 23.2205C117.574 24.8557 119.829 25.867 122.324 25.867C124.82 25.867 127.075 24.8557 128.711 23.2205C130.345 21.5895 131.357 19.3304 131.357 16.8348C131.357 14.3433 130.345 12.0843 128.711 10.4491C127.075 8.814 124.82 7.80273 122.324 7.80273C119.829 7.80273 117.574 8.814 115.939 10.4491ZM122.324 12.0313C123.654 12.0313 124.853 12.5696 125.721 13.4381C126.594 14.3066 127.132 15.5096 127.132 16.8348C127.132 18.1642 126.594 19.367 125.721 20.2357C124.853 21.1042 123.654 21.6424 122.324 21.6424C120.996 21.6424 119.797 21.1042 118.924 20.2357C118.056 19.367 117.517 18.1642 117.517 16.8348C117.517 15.5055 118.056 14.3066 118.924 13.4381C119.797 12.5696 120.996 12.0313 122.324 12.0313Z" fill="white"/>
</svg>
