<svg width="26" height="25" viewBox="0 0 26 25" fill="none" xmlns="http://www.w3.org/2000/svg">
<path d="M26 8C26 7.46957 25.7893 6.96086 25.4142 6.58579C25.0391 6.21071 24.5304 6 24 6H20V2C20 1.46957 19.7893 0.960859 19.4142 0.585786C19.0391 0.210714 18.5304 0 18 0H2C1.46957 0 0.960863 0.210714 0.58579 0.585786C0.210718 0.960859 3.91547e-06 1.46957 3.91547e-06 2V18C-0.00052921 18.1894 0.0533904 18.3749 0.155337 18.5344C0.257284 18.694 0.40296 18.8209 0.575004 18.9C0.743505 18.9824 0.932184 19.0144 1.11842 18.9922C1.30466 18.97 1.48055 18.8946 1.625 18.775L6 15.2375V19C6 19.5304 6.21072 20.0391 6.58579 20.4142C6.96086 20.7893 7.46957 21 8 21H19.7L24.375 24.775C24.5195 24.8946 24.6953 24.97 24.8816 24.9922C25.0678 25.0144 25.2565 24.9824 25.425 24.9C25.597 24.8209 25.7427 24.694 25.8447 24.5344C25.9466 24.3749 26.0005 24.1894 26 24V8ZM20.675 19.225C20.5 19.0782 20.2784 18.9985 20.05 19H8V15H18C18.5304 15 19.0391 14.7893 19.4142 14.4142C19.7893 14.0391 20 13.5304 20 13V8H24V21.9L20.675 19.225Z" fill="#0A61B4"/>
<path d="M25.4142 6.58579C25.7893 6.96086 26 7.46957 26 8V24C26.0005 24.1894 25.9466 24.3749 25.8447 24.5344C25.7427 24.694 25.597 24.8209 25.425 24.9C25.2565 24.9824 25.0678 25.0144 24.8816 24.9922C24.6953 24.97 24.5195 24.8946 24.375 24.775L19.7 21H8C7.46957 21 6.96086 20.7893 6.58579 20.4142C6.21071 20.0391 6 19.5304 6 19V15.2375L8 15V19H20.05C20.2784 18.9985 20.5 19.0782 20.675 19.225L24 21.9V8H20V6H24C24.5304 6 25.0391 6.21071 25.4142 6.58579Z" fill="#20976C"/>
</svg>
