<svg width="26" height="25" viewBox="0 0 26 25" fill="none" xmlns="http://www.w3.org/2000/svg">
<path d="M24 0H2C1.46957 0 0.960859 0.210714 0.585786 0.585786C0.210714 0.960859 0 1.46957 0 2V18C0 18.5304 0.210714 19.0391 0.585786 19.4142C0.960859 19.7893 1.46957 20 2 20H9.4375L11.2875 23.0875C11.4655 23.3825 11.7167 23.6266 12.0167 23.796C12.3167 23.9654 12.6554 24.0544 13 24.0544C13.3446 24.0544 13.6833 23.9654 13.9833 23.796C14.2833 23.6266 14.5345 23.3825 14.7125 23.0875L16.5625 20H24C24.5304 20 25.0391 19.7893 25.4142 19.4142C25.7893 19.0391 26 18.5304 26 18V2C26 1.46957 25.7893 0.960859 25.4142 0.585786C25.0391 0.210714 24.5304 0 24 0ZM7 11.5C6.70333 11.5 6.41332 11.412 6.16665 11.2472C5.91997 11.0824 5.72771 10.8481 5.61418 10.574C5.50065 10.2999 5.47094 9.99834 5.52882 9.70736C5.5867 9.41639 5.72956 9.14912 5.93934 8.93934C6.14912 8.72956 6.41639 8.5867 6.70736 8.52882C6.99834 8.47094 7.29994 8.50065 7.57403 8.61418C7.84811 8.72771 8.08238 8.91997 8.2472 9.16665C8.41203 9.41332 8.5 9.70333 8.5 10C8.5 10.3978 8.34196 10.7794 8.06066 11.0607C7.77936 11.342 7.39782 11.5 7 11.5ZM13 11.5C12.7033 11.5 12.4133 11.412 12.1666 11.2472C11.92 11.0824 11.7277 10.8481 11.6142 10.574C11.5006 10.2999 11.4709 9.99834 11.5288 9.70736C11.5867 9.41639 11.7296 9.14912 11.9393 8.93934C12.1491 8.72956 12.4164 8.5867 12.7074 8.52882C12.9983 8.47094 13.2999 8.50065 13.574 8.61418C13.8481 8.72771 14.0824 8.91997 14.2472 9.16665C14.412 9.41332 14.5 9.70333 14.5 10C14.5 10.3978 14.342 10.7794 14.0607 11.0607C13.7794 11.342 13.3978 11.5 13 11.5ZM19 11.5C18.7033 11.5 18.4133 11.412 18.1666 11.2472C17.92 11.0824 17.7277 10.8481 17.6142 10.574C17.5007 10.2999 17.4709 9.99834 17.5288 9.70736C17.5867 9.41639 17.7296 9.14912 17.9393 8.93934C18.1491 8.72956 18.4164 8.5867 18.7074 8.52882C18.9983 8.47094 19.2999 8.50065 19.574 8.61418C19.8481 8.72771 20.0824 8.91997 20.2472 9.16665C20.412 9.41332 20.5 9.70333 20.5 10C20.5 10.3978 20.342 10.7794 20.0607 11.0607C19.7794 11.342 19.3978 11.5 19 11.5Z" fill="#0A61B4"/>
</svg>
