<svg width="25" height="25" viewBox="0 0 25 25" fill="none" xmlns="http://www.w3.org/2000/svg">
<path d="M23.75 16.7624L17.8875 14.2624C17.585 14.1268 17.253 14.0706 16.9227 14.099C16.5924 14.1275 16.2749 14.2396 16 14.4249L12.8625 16.5124C10.9503 15.5837 9.4021 14.0443 8.4625 12.1374V12.1374L10.5375 8.96241C10.7216 8.68726 10.834 8.37049 10.8645 8.04087C10.8951 7.71125 10.8428 7.37921 10.7125 7.07491L8.2 1.21241C8.02468 0.816555 7.72782 0.486834 7.35247 0.271066C6.97713 0.0552984 6.54281 -0.0352991 6.1125 0.0124122C4.42449 0.233542 2.87421 1.06013 1.7499 2.33849C0.625592 3.61684 0.00375294 5.25998 0 6.96241C0 16.8874 8.075 24.9624 18 24.9624C19.7024 24.9587 21.3456 24.3368 22.6239 23.2125C23.9023 22.0882 24.7289 20.5379 24.95 18.8499C24.9977 18.4196 24.9071 17.9853 24.6913 17.6099C24.4756 17.2346 24.1459 16.9377 23.75 16.7624Z" fill="#0A61B4"/>
<path d="M15.6755 2.92584C17.1976 3.3417 18.5851 4.14725 19.7008 5.26302C20.8166 6.37878 21.6221 7.76619 22.038 9.28834C22.0932 9.50205 22.2175 9.6915 22.3916 9.82716C22.5657 9.96282 22.7798 10.0371 23.0005 10.0383C23.0893 10.0382 23.1777 10.0256 23.263 10.0008C23.3901 9.96758 23.5093 9.90928 23.6136 9.82937C23.7179 9.74945 23.8052 9.64952 23.8704 9.53544C23.9356 9.42135 23.9774 9.2954 23.9933 9.16497C24.0092 9.03454 23.9989 8.90224 23.963 8.77584C23.463 6.9117 22.4814 5.21191 21.1167 3.84718C19.7519 2.48244 18.0521 1.50081 16.188 1.00084C16.0576 0.953318 15.9187 0.933478 15.7801 0.942582C15.6416 0.951687 15.5065 0.989536 15.3834 1.05372C15.2603 1.1179 15.1519 1.20702 15.0651 1.31539C14.9783 1.42375 14.9151 1.549 14.8794 1.68316C14.8436 1.81731 14.8363 1.95744 14.8577 2.09461C14.8791 2.23177 14.9288 2.36298 15.0037 2.47988C15.0786 2.59678 15.177 2.6968 15.2927 2.77358C15.4083 2.85036 15.5387 2.90221 15.6755 2.92584V2.92584Z" fill="#20976C"/>
<path d="M14.6384 6.78814C15.4845 7.01975 16.2557 7.46777 16.876 8.08806C17.4963 8.70836 17.9443 9.47954 18.1759 10.3256C18.2291 10.5404 18.3529 10.7311 18.5274 10.8671C18.702 11.0031 18.9171 11.0765 19.1384 11.0756C19.2232 11.0765 19.3076 11.0638 19.3884 11.0381C19.5166 11.0063 19.6372 10.9489 19.7429 10.8696C19.8486 10.7903 19.9373 10.6906 20.0037 10.5763C20.0701 10.4621 20.113 10.3357 20.1297 10.2046C20.1464 10.0735 20.1366 9.94039 20.1009 9.81314C19.7852 8.62503 19.1611 7.54146 18.2919 6.67218C17.4226 5.80291 16.339 5.17883 15.1509 4.86314C15.0205 4.81562 14.8815 4.79578 14.743 4.80489C14.6045 4.81399 14.4694 4.85184 14.3463 4.91602C14.2232 4.98021 14.1148 5.06932 14.028 5.17769C13.9412 5.28606 13.878 5.41131 13.8423 5.54546C13.8065 5.67962 13.7991 5.81974 13.8205 5.95691C13.842 6.09408 13.8917 6.22529 13.9666 6.34218C14.0415 6.45908 14.1399 6.5591 14.2555 6.63588C14.3712 6.71266 14.5016 6.76452 14.6384 6.78814V6.78814Z" fill="#20976C"/>
</svg>
