<svg width="10" height="11" viewBox="0 0 10 11" fill="none" xmlns="http://www.w3.org/2000/svg">
<path d="M9.47422 5.12813L1.60469 0.315631C1.53844 0.274767 1.46249 0.252316 1.38467 0.250595C1.30686 0.248874 1.22999 0.267945 1.162 0.30584C1.09401 0.343736 1.03736 0.399084 0.997899 0.466175C0.958436 0.533265 0.937586 0.60967 0.9375 0.687506V10.3125C0.937586 10.3903 0.958436 10.4667 0.997899 10.5338C1.03736 10.6009 1.09401 10.6563 1.162 10.6942C1.22999 10.7321 1.30686 10.7511 1.38467 10.7494C1.46249 10.7477 1.53844 10.7252 1.60469 10.6844L9.47422 5.87188C9.53884 5.83367 9.59239 5.77928 9.62958 5.71407C9.66678 5.64886 9.68634 5.57508 9.68634 5.50001C9.68634 5.42493 9.66678 5.35116 9.62958 5.28595C9.59239 5.22074 9.53884 5.16634 9.47422 5.12813Z" fill="white"/>
</svg>
