<svg width="24" height="24" viewBox="0 0 24 24" fill="none" xmlns="http://www.w3.org/2000/svg">
<path fill-rule="evenodd" clip-rule="evenodd" d="M9.00592 3.75091C4.90643 3.69065 1.5 6.62975 1.5 10.0961C1.5 12.097 2.46457 13.8328 4.3317 15.1072C4.3317 15.1072 3.64739 17.3106 3.65712 17.3547C3.66686 17.399 3.81579 17.4858 3.86762 17.4575C3.91945 17.4291 6.34131 16.02 6.34131 16.02C8.07695 16.6013 9.13571 16.4582 9.31642 16.4338C9.32896 16.4321 9.33728 16.431 9.34129 16.4307C9.15606 15.9016 9.03468 15.0776 9.17289 14.301C9.89646 10.2366 14.1616 8.97229 16.4992 9.18828C15.8537 6.25302 13.0499 3.81032 9.00592 3.75091ZM6.15651 7.08691C5.61874 7.08691 5.18287 7.51228 5.18287 8.03707C5.18287 8.56185 5.61874 8.98722 6.15651 8.98722C6.69429 8.98722 7.13027 8.56185 7.13027 8.03707C7.13027 7.51228 6.69429 7.08691 6.15651 7.08691ZM12.0512 7.08691C11.5135 7.08691 11.0775 7.51228 11.0775 8.03707C11.0775 8.56185 11.5135 8.98722 12.0512 8.98722C12.589 8.98722 13.0249 8.56185 13.0249 8.03707C13.0249 7.51228 12.5891 7.08691 12.0512 7.08691Z" fill="white"/>
<path fill-rule="evenodd" clip-rule="evenodd" d="M22.5 14.9194C22.5 11.9498 19.5565 9.6752 16.1418 9.6752C12.5262 9.6752 9.64244 12.0012 9.64244 14.9706C9.64244 17.9454 12.3853 20.4082 16.146 20.4283C16.9029 20.4325 18.0303 20.2426 18.7905 19.9328C18.7905 19.9328 20.6077 21.0078 20.7095 21C20.8112 20.992 20.8634 20.9133 20.8674 20.8459C20.8715 20.7785 20.2884 19.1005 20.2884 19.1005C21.8488 17.9082 22.5 16.5944 22.5 14.9194ZM13.762 12.1391C13.2863 12.1391 12.9006 12.5161 12.9006 12.9812C12.9006 13.4462 13.2863 13.8232 13.762 13.8232C14.2378 13.8232 14.6235 13.4463 14.6235 12.9812C14.6235 12.5161 14.2378 12.1391 13.762 12.1391ZM18.3685 12.1391C17.8927 12.1391 17.507 12.5161 17.507 12.9812C17.507 13.4462 17.8927 13.8232 18.3685 13.8232C18.8444 13.8232 19.23 13.4463 19.23 12.9812C19.23 12.5161 18.8444 12.1391 18.3685 12.1391Z" fill="white"/>
</svg>
